<?xml version="1.0" standalone="no"?>
<!DOCTYPE svg PUBLIC "-//W3C//DTD SVG 20010904//EN"
 "http://www.w3.org/TR/2001/REC-SVG-20010904/DTD/svg10.dtd">
<svg version="1.0" xmlns="http://www.w3.org/2000/svg"
 width="512.000000pt" height="512.000000pt" viewBox="0 0 512.000000 512.000000"
 preserveAspectRatio="xMidYMid meet">

<g transform="translate(0.000000,512.000000) scale(0.100000,-0.100000)"
fill="#000000" stroke="none">
<path d="M4000 4649 c-64 -26 -108 -100 -96 -164 9 -46 34 -75 143 -162 286
-227 577 -571 748 -883 54 -100 86 -135 132 -151 98 -32 207 63 190 166 -7 45
-138 272 -240 417 -171 243 -393 483 -615 663 -153 125 -192 142 -262 114z"/>
<path d="M3730 4099 c-40 -16 -80 -60 -91 -101 -19 -73 -6 -94 194 -291 191
-189 276 -293 389 -477 54 -88 71 -109 109 -128 79 -42 153 -16 197 69 31 60
24 92 -49 214 -126 210 -327 452 -504 607 -135 118 -175 135 -245 107z"/>
<path d="M3441 3533 c-60 -30 -93 -111 -71 -177 6 -20 45 -70 91 -118 75 -78
153 -174 225 -280 38 -55 102 -84 159 -74 79 15 137 105 117 180 -28 100 -316
445 -397 476 -38 15 -85 12 -124 -7z"/>
<path d="M1920 3440 c-188 -26 -341 -74 -511 -161 -269 -139 -495 -363 -633
-629 -78 -151 -106 -228 -150 -422 -4 -16 -12 -28 -19 -28 -22 0 -154 -67
-219 -111 -174 -119 -311 -319 -365 -536 -26 -104 -23 -323 5 -428 93 -337
358 -587 699 -656 89 -19 156 -19 1635 -17 l1543 3 80 23 c321 91 560 330 646
647 32 115 32 335 0 450 -112 412 -491 693 -906 671 -60 -3 -119 -8 -131 -11
-18 -6 -22 1 -38 72 -27 116 -61 205 -127 333 -206 400 -586 686 -1034 780
-114 24 -369 35 -475 20z m418 -314 c356 -78 652 -298 817 -609 79 -148 112
-254 139 -444 16 -118 35 -152 96 -177 54 -21 58 -21 164 15 233 80 455 31
626 -140 87 -87 131 -163 160 -277 25 -98 25 -190 0 -288 -29 -113 -73 -190
-160 -276 -86 -87 -163 -131 -276 -160 -75 -19 -116 -20 -1574 -20 -1458 0
-1499 1 -1574 20 -111 28 -189 73 -276 160 -87 86 -131 162 -160 276 -53 205
6 412 159 564 85 84 159 128 267 158 128 36 143 55 169 207 46 270 150 473
339 661 55 55 130 120 165 144 140 94 316 165 471 190 41 6 82 13 90 15 37 9
292 -5 358 -19z"/>
<path d="M1716 2377 c-78 -44 -76 -30 -76 -577 0 -547 -2 -533 76 -577 81 -47
68 -53 604 265 293 174 338 204 357 238 13 21 23 55 23 74 0 19 -10 53 -23 74
-19 34 -61 62 -317 214 -492 291 -530 312 -569 312 -20 0 -54 -10 -75 -23z
m388 -487 c80 -47 146 -87 146 -90 0 -5 -295 -180 -304 -180 -3 0 -6 81 -6
181 0 108 4 179 9 177 6 -1 75 -41 155 -88z"/>
</g>
</svg>
