<?xml version="1.0" standalone="no"?>
<!DOCTYPE svg PUBLIC "-//W3C//DTD SVG 20010904//EN"
 "http://www.w3.org/TR/2001/REC-SVG-20010904/DTD/svg10.dtd">
<svg version="1.0" xmlns="http://www.w3.org/2000/svg"
 width="128.000000pt" height="128.000000pt" viewBox="0 0 128.000000 128.000000"
 preserveAspectRatio="xMidYMid meet">

<g transform="translate(0.000000,128.000000) scale(0.100000,-0.100000)"
fill="#000000" stroke="none">
<path d="M987 1153 c-19 -18 0 -50 71 -117 42 -41 95 -104 117 -140 42 -68 66
-86 90 -66 24 20 18 38 -40 126 -87 130 -206 229 -238 197z"/>
<path d="M928 1019 c-29 -16 -21 -42 28 -89 25 -25 64 -71 85 -102 43 -62 70
-73 90 -37 9 18 4 31 -36 90 -40 59 -129 149 -145 149 -3 -1 -13 -5 -22 -11z"/>
<path d="M858 879 c-26 -15 -22 -37 15 -79 17 -20 40 -47 50 -59 33 -41 83 -5
58 42 -16 31 -86 107 -97 107 -5 0 -17 -5 -26 -11z"/>
<path d="M405 842 c-112 -39 -200 -128 -233 -234 -13 -44 -23 -60 -43 -69 -33
-13 -86 -64 -105 -101 -54 -105 -8 -243 99 -301 41 -21 51 -22 435 -25 440 -3
470 0 531 60 50 49 71 98 71 165 -1 130 -92 223 -218 223 l-49 0 -12 43 c-29
101 -139 211 -245 242 -66 20 -169 18 -231 -3z m151 -300 c149 -89 149 -95 0
-184 -103 -61 -115 -65 -134 -46 -17 17 -17 259 0 276 19 19 31 15 134 -46z"/>
<path d="M480 450 c0 -22 4 -40 9 -40 12 0 71 33 71 40 0 7 -59 40 -71 40 -5
0 -9 -18 -9 -40z"/>
</g>
</svg>
