<?xml version="1.0" standalone="no"?>
<!DOCTYPE svg PUBLIC "-//W3C//DTD SVG 20010904//EN"
 "http://www.w3.org/TR/2001/REC-SVG-20010904/DTD/svg10.dtd">
<svg version="1.0" xmlns="http://www.w3.org/2000/svg"
 width="128.000000pt" height="128.000000pt" viewBox="0 0 128.000000 128.000000"
 preserveAspectRatio="xMidYMid meet">

<g transform="translate(0.000000,128.000000) scale(0.100000,-0.100000)"
fill="#ffffff" stroke="none">
<path d="M987 1153 c-19 -18 0 -50 71 -117 42 -41 95 -104 117 -140 42 -68 66
-86 90 -66 24 20 18 38 -40 126 -87 130 -206 229 -238 197z"/>
<path d="M928 1019 c-29 -16 -21 -42 28 -89 25 -25 64 -71 85 -102 43 -62 70
-73 90 -37 9 18 4 31 -36 90 -40 59 -129 149 -145 149 -3 -1 -13 -5 -22 -11z"/>
<path d="M858 879 c-26 -15 -22 -37 15 -79 17 -20 40 -47 50 -59 33 -41 83 -5
58 42 -16 31 -86 107 -97 107 -5 0 -17 -5 -26 -11z"/>
<path d="M405 842 c-112 -39 -200 -128 -233 -234 -13 -44 -23 -60 -43 -69 -33
-13 -86 -64 -105 -101 -54 -105 -8 -243 99 -301 41 -21 51 -22 435 -25 440 -3
470 0 531 60 55 54 74 101 69 178 -7 121 -85 201 -203 208 l-63 4 -12 42 c-28
100 -139 210 -244 241 -66 20 -169 18 -231 -3z m252 -88 c70 -34 129 -102 149
-173 8 -31 19 -67 23 -81 5 -20 12 -24 36 -22 126 12 154 2 203 -69 45 -65 11
-174 -64 -205 -50 -21 -803 -20 -843 1 -54 27 -81 71 -81 128 0 68 27 112 84
138 53 23 61 33 71 84 8 49 27 85 66 129 89 102 233 130 356 70z"/>
<path d="M422 588 c-8 -8 -12 -53 -12 -138 0 -125 6 -150 36 -150 20 0 206
113 218 133 17 27 -2 47 -108 110 -103 60 -115 64 -134 45z m138 -138 c0 -3
-16 -14 -35 -23 l-35 -17 0 40 0 40 35 -17 c19 -9 35 -20 35 -23z"/>
</g>
</svg>
